<svg width="21" height="21" viewBox="0 0 21 21" fill="none" xmlns="http://www.w3.org/2000/svg">
<path d="M8.80757 0C3.95121 0 0 3.95121 0 8.80757C0 13.6642 3.95121 17.6151 8.80757 17.6151C13.6642 17.6151 17.6151 13.6642 17.6151 8.80757C17.6151 3.95121 13.6642 0 8.80757 0ZM8.80757 15.9892C4.84769 15.9892 1.62601 12.7675 1.62601 8.80761C1.62601 4.84773 4.84769 1.62601 8.80757 1.62601C12.7675 1.62601 15.9891 4.84769 15.9891 8.80757C15.9891 12.7675 12.7675 15.9892 8.80757 15.9892Z" fill="#AEAEAE"/>
<path d="M20.0491 18.8995L15.3878 14.2382C15.0702 13.9206 14.5558 13.9206 14.2382 14.2382C13.9206 14.5556 13.9206 15.0705 14.2382 15.3878L18.8995 20.0491C19.0582 20.2079 19.2661 20.2873 19.4743 20.2873C19.6821 20.2873 19.8902 20.2079 20.0491 20.0491C20.3667 19.7317 20.3667 19.2168 20.0491 18.8995Z" fill="#AEAEAE"/>
</svg>
